<?xml version="1.0" encoding="utf-8"?>
<!-- Generator: Adobe Illustrator 16.0.0, SVG Export Plug-In . SVG Version: 6.00 Build 0)  -->
<!DOCTYPE svg PUBLIC "-//W3C//DTD SVG 1.1//EN" "http://www.w3.org/Graphics/SVG/1.1/DTD/svg11.dtd">
<svg version="1.1" id="Layer_1" xmlns="http://www.w3.org/2000/svg" xmlns:xlink="http://www.w3.org/1999/xlink" x="0px" y="0px"
	 width="258px" height="107px" viewBox="293.445 250.14 258 107" enable-background="new 293.445 250.14 258 107"
	 xml:space="preserve">
<g>
	<path fill="#0797D5" d="M338.938,337.139c-0.001,0-0.001,0-0.002,0c-5.57,0-11.021-1.103-16.201-3.272
		c-21.328-8.945-31.403-33.572-22.46-54.901c6.556-15.633,21.745-25.734,38.697-25.734c5.57,0,11.022,1.102,16.202,3.273
		c10.332,4.333,18.358,12.43,22.602,22.799c4.241,10.369,4.191,21.77-0.141,32.102C371.079,327.037,355.889,337.139,338.938,337.139
		z M338.971,254.8c-16.317,0-30.939,9.724-37.25,24.771c-8.608,20.53,1.09,44.237,21.62,52.847
		c4.986,2.092,10.233,3.151,15.595,3.151c16.319,0.001,30.94-9.723,37.252-24.772c4.171-9.943,4.219-20.917,0.135-30.899
		c-4.083-9.981-11.811-17.775-21.755-21.945C349.58,255.86,344.333,254.8,338.971,254.8z"/>
</g>
<rect x="324.439" y="326.077" transform="matrix(-0.9247 -0.3808 0.3808 -0.9247 499.6049 758.3999)" fill="#0797D5" width="0.785" height="7.393"/>
<rect x="352.868" y="256.897" transform="matrix(-0.9251 -0.3797 0.3797 -0.9251 581.0969 635.817)" fill="#0797D5" width="0.784" height="7.395"/>
<rect x="369.905" y="308.98" transform="matrix(-0.9248 -0.3803 0.3803 -0.9248 601.4594 737.5891)" fill="#0797D5" width="7.395" height="0.783"/>
<rect x="300.766" y="280.569" transform="matrix(-0.9249 -0.3802 0.3802 -0.9249 479.2278 656.5852)" fill="#0797D5" width="7.394" height="0.784"/>
<path fill="#0797D5" d="M326.038,326.777l-18.604-44.581l44.583-18.604l18.604,44.582l-0.362,0.15L326.038,326.777z
	 M308.459,282.618l18,43.133l43.136-18l-18-43.133L308.459,282.618z"/>
<rect x="338.574" y="253.954" fill="#0797D5" width="0.784" height="15.128"/>
<rect x="307.69" y="271.407" transform="matrix(-0.7027 -0.7115 0.7115 -0.7027 343.8446 687.2751)" fill="#0797D5" width="15.643" height="0.784"/>
<rect x="362.326" y="263.995" transform="matrix(-0.7099 -0.7043 0.7043 -0.7099 429.0273 719.6249)" fill="#0797D5" width="0.784" height="14.922"/>
<g>
	<rect x="298.091" y="294.807" fill="#0797D5" width="14.898" height="0.784"/>
</g>
<path fill="#0797D5" d="M352.181,326.71l-0.361-0.149l-44.316-18.222l18.37-44.68l0.362,0.149l44.316,18.221L352.181,326.71z
	 M308.526,307.912l43.229,17.774l17.774-43.23L326.3,264.682L308.526,307.912z"/>
<rect x="349.725" y="329.325" transform="matrix(-0.3852 -0.9228 0.9228 -0.3852 185.2949 782.8775)" fill="#0797D5" width="7.395" height="0.784"/>
<rect x="320.925" y="260.299" transform="matrix(-0.3851 -0.9229 0.9229 -0.3851 209.041 660.6661)" fill="#0797D5" width="7.395" height="0.784"/>
<rect x="373.135" y="277.108" transform="matrix(-0.3849 -0.923 0.923 -0.3849 258.1158 733.6354)" fill="#0797D5" width="0.784" height="7.396"/>
<rect x="304.121" y="305.883" transform="matrix(-0.3853 -0.9228 0.9228 -0.3853 136.1727 709.8675)" fill="#0797D5" width="0.783" height="7.395"/>
<rect x="338.667" y="320.55" fill="#0797D5" width="0.784" height="15.845"/>
<rect x="354.721" y="318.187" transform="matrix(-0.7027 -0.7115 0.7115 -0.7027 390.6287 800.3891)" fill="#0797D5" width="15.642" height="0.784"/>
<rect x="315.05" y="311.48" transform="matrix(-0.6996 -0.7145 0.7145 -0.6996 308.1956 767.5495)" fill="#0797D5" width="0.784" height="15.02"/>
<rect x="365.133" y="294.807" fill="#0797D5" width="14.897" height="0.784"/>
<rect x="308.545" y="266.148" transform="matrix(-0.9917 -0.1283 0.1283 -0.9917 580.1076 586.1473)" fill="#0797D5" width="0.784" height="16.474"/>
<g>
	
		<rect x="302.634" y="280.951" transform="matrix(-0.7949 -0.6068 0.6068 -0.7949 368.5807 702.4799)" fill="#0797D5" width="0.784" height="15.98"/>
	
		<rect x="294.975" y="301.312" transform="matrix(-0.6034 -0.7974 0.7974 -0.6034 245.3459 725.4194)" fill="#0797D5" width="16.154" height="0.784"/>
</g>
<rect x="300.888" y="315.801" transform="matrix(-0.1319 -0.9913 0.9913 -0.1319 36.3163 664.1895)" fill="#0797D5" width="16.198" height="0.784"/>
<rect x="310.014" y="324.766" transform="matrix(-0.9929 -0.1189 0.1189 -0.9929 595.0048 685.8148)" fill="#0797D5" width="15.893" height="0.785"/>
<rect x="324.169" y="330.728" transform="matrix(-0.7977 -0.6031 0.6031 -0.7977 398.0732 795.7898)" fill="#0797D5" width="16.714" height="0.784"/>
<rect x="345.191" y="323.148" transform="matrix(-0.6105 -0.792 0.792 -0.6105 294.2042 807.1806)" fill="#0797D5" width="0.785" height="16.198"/>
<rect x="359.613" y="317.025" transform="matrix(-0.1421 -0.9898 0.9898 -0.1421 89.3664 727.655)" fill="#0797D5" width="0.783" height="16.153"/>
<rect x="368.567" y="308.292" transform="matrix(-0.9922 -0.1245 0.1245 -0.9922 695.6871 675.7979)" fill="#0797D5" width="0.784" height="15.741"/>
<rect x="374.295" y="293.707" transform="matrix(-0.8092 -0.5876 0.5876 -0.8092 500.5359 766.1768)" fill="#0797D5" width="0.784" height="16.199"/>
<rect x="366.755" y="288.346" transform="matrix(-0.5827 -0.8127 0.8127 -0.5827 358.5103 761.5656)" fill="#0797D5" width="16.052" height="0.784"/>
<rect x="360.923" y="273.795" transform="matrix(-0.1319 -0.9913 0.9913 -0.1319 145.9075 676.1527)" fill="#0797D5" width="16.199" height="0.784"/>
<rect x="352.055" y="264.727" transform="matrix(-0.9917 -0.1283 0.1283 -0.9917 683.1071 574.2325)" fill="#0797D5" width="15.98" height="0.784"/>
<rect x="337.241" y="258.747" transform="matrix(-0.8009 -0.5988 0.5988 -0.8009 467.0838 673.5804)" fill="#0797D5" width="16.563" height="0.784"/>
<rect x="332.203" y="251.156" transform="matrix(-0.6229 -0.7823 0.7823 -0.6229 336.9824 680.8411)" fill="#0797D5" width="0.784" height="16.082"/>
<rect x="317.756" y="257.028" transform="matrix(-0.1233 -0.9924 0.9924 -0.1233 94.1501 613.6553)" fill="#0797D5" width="0.784" height="16.42"/>
<g>
	<path fill="#0797D5" d="M462.986,345.966c0,0,1.152,1.313,3.348,1.313c1.818,0,3.096-1.062,3.096-2.538
		c0-2.988-4.877-2.447-4.877-4.445c0-1.008,0.881-1.404,1.799-1.404c1.494,0,2.27,0.828,2.27,0.828l0.557-0.936
		c0,0-0.881-0.99-2.789-0.99c-1.639,0-3.096,0.881-3.096,2.502c0,2.951,4.877,2.466,4.877,4.445c0,0.955-0.846,1.44-1.818,1.44
		c-1.691,0-2.699-1.099-2.699-1.099L462.986,345.966z M453.57,347.064h1.223v-4.338c0-0.432,0.037-0.846,0.145-1.225
		c0.414-1.494,1.746-2.556,3.295-2.556c1.744,0,1.961,1.261,1.961,2.683v5.436h1.225v-5.76c0-2.232-0.793-3.51-3.025-3.51
		c-2.141,0-3.293,1.457-3.617,2.285h-0.035c0,0,0.035-0.324,0.035-0.72v-1.351h-1.205V347.064L453.57,347.064z M443.437,342.492
		c0-2.052,1.586-3.582,3.529-3.582s3.527,1.53,3.527,3.582c0,2.106-1.584,3.69-3.527,3.69S443.437,344.598,443.437,342.492
		 M442.177,342.492c0,2.736,2.143,4.788,4.789,4.788s4.787-2.052,4.787-4.788c0-2.682-2.141-4.697-4.787-4.697
		S442.177,339.81,442.177,342.492 M426.787,347.064h1.225v-4.284c0-0.413,0.035-0.827,0.125-1.206
		c0.379-1.386,1.494-2.664,2.971-2.664c1.711,0,1.908,1.332,1.908,2.7v5.454h1.225v-4.283c0-0.486,0.035-0.919,0.162-1.314
		c0.342-1.332,1.475-2.557,2.861-2.557c1.656,0,1.961,1.225,1.961,2.7v5.454h1.225v-5.76c0-2.232-0.811-3.51-3.006-3.51
		c-1.529,0-2.844,1.043-3.33,2.268h-0.035c-0.271-1.494-1.135-2.268-2.809-2.268c-1.404,0-2.844,1.062-3.275,2.285h-0.037
		c0,0,0.037-0.324,0.037-0.72v-1.35h-1.207V347.064L426.787,347.064z M410.78,347.064h1.224v-4.284c0-0.413,0.036-0.827,0.126-1.206
		c0.378-1.386,1.494-2.664,2.97-2.664c1.71,0,1.908,1.332,1.908,2.7v5.454h1.225v-4.283c0-0.486,0.035-0.919,0.161-1.314
		c0.343-1.332,1.477-2.557,2.862-2.557c1.656,0,1.962,1.225,1.962,2.7v5.454h1.225v-5.76c0-2.232-0.811-3.51-3.007-3.51
		c-1.529,0-2.844,1.043-3.329,2.268h-0.036c-0.271-1.494-1.135-2.268-2.809-2.268c-1.403,0-2.844,1.062-3.275,2.285h-0.036
		c0,0,0.036-0.324,0.036-0.72v-1.35h-1.206V347.064L410.78,347.064z M400.65,342.492c0-2.052,1.584-3.582,3.527-3.582
		c1.944,0,3.528,1.53,3.528,3.582c0,2.106-1.584,3.69-3.528,3.69C402.234,346.182,400.65,344.598,400.65,342.492 M399.39,342.492
		c0,2.736,2.143,4.788,4.788,4.788c2.646,0,4.788-2.052,4.788-4.788c0-2.682-2.142-4.697-4.788-4.697
		C401.532,337.794,399.39,339.81,399.39,342.492 M390.413,342.546c0,2.808,2.07,4.733,4.752,4.733c2.304,0,3.528-1.422,3.528-1.422
		l-0.559-0.954c0,0-1.062,1.278-2.897,1.278c-1.998,0-3.564-1.513-3.564-3.636c0-2.16,1.548-3.637,3.528-3.637
		c1.638,0,2.646,1.098,2.646,1.098l0.63-0.918c0,0-1.098-1.295-3.312-1.295C392.501,337.794,390.413,339.755,390.413,342.546"/>
	<path fill="#002E6D" d="M531.421,326.578c0,0,2.922,3.506,8.814,3.506c4.479,0,7.789-2.679,7.789-6.574
		c0-8.081-13.389-6.182-13.389-12.512c0-3.166,2.727-4.432,5.502-4.432c4.139,0,6.135,2.289,6.135,2.289l1.217-1.656
		c0,0-2.24-2.629-7.205-2.629c-4.141,0-7.791,2.24-7.791,6.573c0,7.937,13.389,6.185,13.389,12.366c0,3.02-2.629,4.578-5.598,4.578
		c-4.82,0-7.547-3.067-7.547-3.067L531.421,326.578z M506.591,317.181c0-6.038,4.674-10.615,10.467-10.615
		c5.795,0,10.469,4.577,10.469,10.615c0,6.184-4.674,10.906-10.469,10.906C511.265,328.085,506.591,323.363,506.591,317.181
		 M504.449,317.181c0,7.254,5.646,12.902,12.609,12.902c6.965,0,12.611-5.648,12.611-12.902c0-7.109-5.646-12.611-12.611-12.611
		C510.095,304.569,504.449,310.072,504.449,317.181 M498.455,329.5h2.045v-24.346h-2.045V329.5z M498.261,298.97h2.434v-3.554
		h-2.434V298.97z M483.312,327.503c-5.209,0-8.812-3.994-8.812-10.566c0-6.573,3.117-10.371,8.326-10.371
		c4.771,0,8.473,2.532,8.473,10.371C491.298,324.824,487.597,327.503,483.312,327.503 M475.474,336.022l-0.975,1.802
		c2.387,1.217,4.967,1.899,7.645,1.899c5.795,0,11.15-2.923,11.15-10.371v-24.199h-2.045v3.263c0,0.584,0.146,0.924,0.146,0.924
		h-0.098c0,0-1.559-4.771-8.473-4.771c-6.33,0-10.467,4.771-10.467,12.367s4.479,12.562,10.809,12.562
		c4.041,0,6.719-1.996,8.18-4.965h0.098c0,0-0.195,0.875-0.195,1.995v2.824c0,5.892-4.041,8.375-9.252,8.375
		C478.494,337.728,475.474,336.022,475.474,336.022 M451.63,322.876c0-6.33,8.863-6.33,13.002-6.33h1.559v1.314
		c0,4.82-3.02,10.322-8.326,10.322C453.724,328.184,451.63,325.457,451.63,322.876 M449.49,323.022c0,4.869,4.332,7.06,8.275,7.06
		c6.33,0,8.57-5.988,8.521-5.988h0.098c0,0-0.193,0.877-0.193,2.191v3.213h2.045v-15.727c0-6.086-3.02-9.202-8.619-9.202
		c-5.309,0-8.229,2.679-8.229,2.679l1.168,1.654c0,0,2.727-2.337,6.963-2.337c3.895,0,6.672,1.851,6.672,7.255v0.828h-1.607
		C460.25,314.648,449.49,314.746,449.49,323.022 M441.017,324.582c0,4.576,3.359,5.112,4.771,5.112c0.438,0,0.877-0.098,0.877-0.098
		v-1.899c0,0-0.342,0.049-0.73,0.049c-1.119,0-2.873-0.389-2.873-3.797v-28.533h-2.045V324.582z M416.381,315.085
		c0.876-5.696,5.016-8.617,9.494-8.617c4.041,0,7.596,2.678,7.84,8.617H416.381z M414.092,317.375
		c0,7.742,5.697,12.709,12.562,12.709c5.26,0,8.668-3.359,8.668-3.359l-1.121-1.704c0,0-2.873,3.067-7.547,3.067
		c-5.648,0-10.418-4.041-10.418-11.102h19.524c0,0,0.098-0.779,0.098-1.314c0-5.892-3.311-11.102-9.934-11.102
		C419.692,304.569,414.092,309.146,414.092,317.375 M393.502,313.431v-16.067h9.007c4.967,0,8.277,2.873,8.277,7.985
		c0,5.111-3.311,8.082-8.277,8.082H393.502z M391.408,329.5h2.094v-14.121h9.105c5.939,0,10.37-3.846,10.37-10.029
		s-4.431-9.933-10.37-9.933h-11.199V329.5z"/>
</g>
</svg>
